<svg xmlns="http://www.w3.org/2000/svg" width="1201.221" height="1202.09" viewBox="0 0 1201.221 1202.09">
  <metadata><?xpacket begin="﻿" id="W5M0MpCehiHzreSzNTczkc9d"?>
<x:xmpmeta xmlns:x="adobe:ns:meta/" x:xmptk="Adobe XMP Core 5.6-c140 79.160451, 2017/05/06-01:08:21        ">
   <rdf:RDF xmlns:rdf="http://www.w3.org/1999/02/22-rdf-syntax-ns#">
      <rdf:Description rdf:about=""/>
   </rdf:RDF>
</x:xmpmeta>
                                                                                                    
                                                                                                    
                                                                                                    
                                                                                                    
                                                                                                    
                                                                                                    
                                                                                                    
                                                                                                    
                                                                                                    
                                                                                                    
                                                                                                    
                                                                                                    
                                                                                                    
                                                                                                    
                                                                                                    
                                                                                                    
                                                                                                    
                                                                                                    
                                                                                                    
                                                                                                    
                           
<?xpacket end="w"?></metadata>
<defs>
    <style>
      .cls-1 {
        fill-rule: evenodd;
      }
    </style>
  </defs>
  <path id="shape" class="cls-1" d="M575,0c77.971-7.8,157.754,8.88,231.776,35.854A601.959,601.959,0,0,1,1182,445c29.84,111.377,25.94,231.513-10,344a609.068,609.068,0,0,1-35.07,86.383Q1093.97,843.192,1051,811a468.684,468.684,0,0,0,48-166c6.89-72.007-3.47-151.2-37-232-35.22-84.869-94.27-158.879-169-215-76.5-57.448-225.421-112.907-376-87-88.656,19.456-169.145,52.744-236,111,27.359,23.789,74.951,69.132,68,64a385.93,385.93,0,0,1,159.161-78.782C563.026,194.564,626.4,193.449,696,211c74.312,18.738,143.105,57.381,197.063,112.988C949.9,382.559,983.014,448,997,512c17.87,81.777,7.53,166.857-28,243-23.247-17.7-127.487-97.2-128.935-95.354a0.114,0.114,0,0,0-.006.111C840.343,659.805,860.236,602.43,846,539c-9.163-40.827-31.155-80.954-66-115-41.79-40.832-95.708-63.283-149-69-60.656-6.507-121.4,9.048-172,43l65,61a166.042,166.042,0,0,1,128-12c38.012,12.007,76.033,39.133,97,82,23.3,47.649,20.471,103.616-5,150,21.557,24.5,251.316,250.441,314,316a0.851,0.851,0,0,0,.15-0.175C1057.94,994.6,990.359,1075.51,887,1131c-152.557,81.9-312.089,69.78-312,71,0.007,0.1,1.1-.06,1.1.03,0,0.32-126.02,1.78-250.1-64.03C206.962,1074.87,118.348,981.926,57,861,41.484,830.416-7.817,709.584,2,559c3.15-48.319,11.292-93.275,24-135a572.758,572.758,0,0,1,38-94l88,62a488.449,488.449,0,0,0-51,200c-2.954,81.457,14.311,162.59,51,235,43.263,85.385,115.918,160.15,213,212,61.377,32.78,125.336,51.71,188,58a501.657,501.657,0,0,0,160-10c60.953-13.69,106.993-33.89,144-57a423.816,423.816,0,0,0,64-49c-2-1.883-71.548-67.423-71.548-67.423L851,915a402.891,402.891,0,0,1-408,55c-73.515-31.061-137.955-83.2-182-152-41.155-64.291-64.3-140.918-62-220a383.436,383.436,0,0,1,36-151l125,93c-13.817,40.1-16.563,82.419-7,123,14.775,62.7,59.656,111.641,109.292,143.032,50.647,32.031,119.921,51.418,191.419,35.534A245.824,245.824,0,0,0,741,803c-24.726-24.164-64.991-63.867-62-61a158.319,158.319,0,0,1-73.464,21.578C570.081,764.974,535.147,753.539,506,733c-28.9-20.367-59.921-55.865-68-104-4.571-27.239-1.914-62.874,20.894-109.42l0.04-.081L143,210C283.924,42.041,468.742,10.626,575,0ZM540,510c-23.189,15.092-38.036,38.8-44,63a105.347,105.347,0,0,0,3,61c14.509,39.836,55.147,72.317,103,72,28.81-.191,65.307-12.7,88-47,16.947-25.615,20.9-56.552,14-84a106.479,106.479,0,0,0-38-58C632.014,490.735,579.592,484.232,540,510Z" transform="translate(-0.719)"/>
</svg>
